PathFileType	4	(X/Y/Z)	C:/Users/beibeiliu/ov580/test_trc\sequence.37_training_dense_right.trc
DataRate	CameraRate	NumFrames	NumMarkers	Units	OrigDataRate	OrigDataStartFrame	OrigNumFrames
120	120	8	19	mm	120	202	269
Frame#	Time	ThumbCMC			ThumbMCP			ThumbIP			ThumbTip			IndexMCP			IndexPIP			IndexTip			MiddleMCP			MiddlePIP			MiddleTip			RingMCP			RingPIP			RingTip			PinkyMCP			PinkyPIP			PinkyTip			BackHand1			BackHand2			BackHand3	
		X0	Y0	Z0	X1	Y1	Z1	X2	Y2	Z2	X3	Y3	Z3	X4	Y4	Z4	X5	Y5	Z5	X6	Y6	Z6	X7	Y7	Z7	X8	Y8	Z8	X9	Y9	Z9	X10	Y10	Z10	X11	Y11	Z11	X12	Y12	Z12	X13	Y13	Z13	X14	Y14	Z14	X15	Y15	Z15	X16	Y16	Z16	X17	Y17	Z17	X18	Y18	Z18	
201	1.675	288.099	-77.6807	-6.24171	304.566	-100.685	-19.3215	312.035	-113.469	-30.0739	319.056	-129.35	-41.0427	316.543	-62.7928	-64.4205	332.153	-64.655	-86.4713	345.264	-72.2512	-102.272	337.775	-44.0358	-61.2636	350.166	-48.8861	-83.5371	374.963	-53.7111	-100.055	347.132	-35.2305	-44.796	364.371	-36.9209	-62.5164	378.573	-47.6997	-79.3403	355.42	-28.9719	-23.7489	373.159	-28.8346	-35.6789	391.028	-36.0653	-47.7579	319.489	-29.0375	-14.333	300.297	-28.2653	4.45389	290.614	-48.0045	-15.1811	
202	1.68333	288.135	-76.0299	-4.17412	299.436	-99.2319	-12.1668	305.57	-116.357	-27.3843	311.309	-129.315	-37.7329	318.472	-65.1544	-62.5982	332.401	-67.7092	-79.7135	344.234	-70.2266	-97.4442	336.785	-50.8424	-54.555	353.984	-50.354	-75.2374	367.499	-52.9985	-93.0534	348.378	-42.1591	-41.922	365.915	-42.5414	-58.044	377.076	-45.1944	-71.4063	359.423	-33.5873	-17.2432	372.672	-34.9576	-30.391	388.666	-31.0452	-39.9108	318.809	-30.6864	-7.86703	305.986	-27.9607	10.8448	293.549	-45.393	-11.6735	
203	1.69167	282.185	-74.9436	-2.88071	289.785	-98.4485	-9.15298	298.509	-114.179	-23.1619	299.452	-130.199	-33.5253	319.348	-65.3178	-57.3394	328.748	-68.7184	-74.4688	340.174	-70.7794	-95.7838	340.885	-51.0696	-51.8308	353.047	-53.3948	-68.1087	369.258	-50.7819	-86.3673	351.18	-43.2784	-33.5329	365.437	-44.8946	-52.7672	378.365	-44.2056	-66.5793	360.137	-37.6673	-14.4769	373.606	-38.9568	-25.0876	384.127	-32.8084	-32.7808	320.465	-32.4351	-4.14768	305.087	-24.8358	18.63	293.241	-42.155	-10.5546	
204	1.7	277.655	-69.2923	4.65503	286.036	-93.893	-5.89769	287.818	-111.693	-19.9769	288.706	-125.986	-27.7934	318.754	-61.8962	-52.4621	326.689	-67.8503	-71.2082	339.522	-67.6964	-89.9463	339.442	-50.9051	-45.0802	352.941	-52.4748	-61.6784	363.877	-51.9463	-82.7837	349.09	-44.8582	-31.7477	365.315	-44.6635	-45.9529	372.991	-45.7732	-63.0734	355.889	-40.2524	-7.24864	372.508	-39.1777	-15.8086	380.813	-34.2174	-27.3424	319.662	-34.1132	2.15427	304.687	-25.5402	19.6838	291.611	-40.3496	-4.46963	
205	1.70833	271.992	-64.4332	6.06133	272.112	-89.0363	-3.15273	277.153	-105.662	-17.1152	280.028	-120.047	-28.4575	312.273	-59.2815	-49.6127	321.166	-64.3678	-69.203	328.494	-65.6505	-83.0189	331.853	-48.6874	-39.2372	345.917	-51.1519	-58.1966	361.891	-49.4426	-80.9642	345.482	-41.9139	-26.9973	355.327	-45.2299	-41.8778	366.137	-46.8389	-58.6293	348.015	-41.2098	-3.63862	364.242	-39.8105	-14.1798	376.304	-33.4789	-26.4189	317.508	-28.8881	4.72173	297.286	-22.597	22.9927	288.253	-34.3295	-1.72842	
206	1.71667	263.129	-56.4493	7.1408	264.588	-82.8236	-4.01231	266.284	-100.453	-19.1041	266.478	-113.494	-28.7008	302.775	-51.6879	-46.9659	310.045	-57.8357	-65.1462	320.39	-59.3988	-83.8597	321.791	-42.9873	-37.6706	336.902	-45.8034	-56.3529	350.02	-47.5259	-78.8423	334.282	-38.8598	-22.2157	350.286	-41.4663	-42.4794	362.16	-42.1686	-59.0339	341.458	-38.2536	-2.23135	356.548	-38.2854	-16.5832	367.769	-33.2441	-24.6253	307.265	-26.7425	5.64826	296.349	-18.8291	25.7214	282.81	-29.5398	2.21581	
207	1.725	251.458	-47.7826	13.305	254.061	-72.5541	-2.27783	251.276	-89.678	-18.9531	252.217	-103.232	-28.6371	287.868	-43.8485	-45.8239	298.515	-48.0329	-63.6265	305.461	-52.5094	-80.9637	312.249	-38.2978	-40.9632	323.671	-40.7067	-55.7256	336.475	-43.1895	-79.7805	322.399	-35.2962	-20.8968	338.349	-37.8603	-43.4173	346.585	-39.2132	-56.7192	330.281	-36.063	-1.14746	348.943	-34.8917	-13.2031	357.19	-31.1832	-25.6546	298.826	-20.7906	9.37174	287.896	-11.6996	33.3655	271.248	-20.3507	7.8993	
208	1.73333	238.041	-38.8592	15.0498	234.473	-61.8761	0.546733	236.821	-77.0629	-19.0919	237.106	-91.997	-34.4094	270.761	-33.8562	-42.4063	277.94	-38.5783	-60.5697	289.135	-42.3047	-84.9748	295.002	-30.4497	-40.3277	308.535	-32.857	-56.3661	320.266	-36.3785	-77.6865	306.228	-29.4671	-23.0444	316.992	-32.9157	-40.4232	329.641	-34.3686	-58.617	320.243	-31.4645	-5.23069	332.583	-32.0755	-12.0662	342.231	-28.6565	-26.9109	286.352	-17.3647	11.6259	277.565	-7.62935	32.0745	262.421	-14.2329	8.13357	
